<mxfile host="app.diagrams.net" agent="Mozilla/5.0 (Windows NT 10.0; Win64; x64) AppleWebKit/537.36 (KHTML, like Gecko) Chrome/110.0.0.0 Safari/537.36" version="26.1.0">
  <diagram name="第 1 页" id="N1TsONQ0HHZSj8io1qqS">
    <mxGraphModel dx="2536" dy="911" grid="1" gridSize="10" guides="1" tooltips="1" connect="1" arrows="1" fold="1" page="1" pageScale="1" pageWidth="827" pageHeight="1169" math="0" shadow="0">
      <root>
        <mxCell id="0" />
        <mxCell id="1" parent="0" />
        <mxCell id="7mGhuWGEQKy8r7tpkP_Z-5" value="splitter" style="rounded=0;whiteSpace=wrap;html=1;fillColor=#d5e8d4;strokeColor=#82b366;" vertex="1" parent="1">
          <mxGeometry x="-40" y="110" width="120" height="60" as="geometry" />
        </mxCell>
        <mxCell id="7mGhuWGEQKy8r7tpkP_Z-9" value="&lt;span style=&quot;font-size:10.0pt;font-family:&lt;br/&gt;&amp;quot;Times New Roman&amp;quot;,serif;mso-fareast-font-family:宋体;letter-spacing:-.05pt;&lt;br/&gt;mso-ansi-language:X-NONE;mso-fareast-language:X-NONE;mso-bidi-language:AR-SA&quot; lang=&quot;X-NONE&quot;&gt;coreference resolution&amp;nbsp;&lt;/span&gt;" style="rounded=0;whiteSpace=wrap;html=1;fillColor=#d5e8d4;strokeColor=#82b366;" vertex="1" parent="1">
          <mxGeometry x="160" y="110" width="120" height="60" as="geometry" />
        </mxCell>
        <mxCell id="7mGhuWGEQKy8r7tpkP_Z-16" value="chunker" style="rounded=0;whiteSpace=wrap;html=1;fillColor=#d5e8d4;strokeColor=#82b366;" vertex="1" parent="1">
          <mxGeometry x="350" y="110" width="120" height="60" as="geometry" />
        </mxCell>
        <mxCell id="7mGhuWGEQKy8r7tpkP_Z-22" value="embedding machine" style="rounded=0;whiteSpace=wrap;html=1;fillColor=#d5e8d4;strokeColor=#82b366;" vertex="1" parent="1">
          <mxGeometry x="550" y="110" width="120" height="60" as="geometry" />
        </mxCell>
        <mxCell id="7mGhuWGEQKy8r7tpkP_Z-33" value="" style="group" vertex="1" connectable="0" parent="1">
          <mxGeometry x="-120" y="240" width="130" height="70" as="geometry" />
        </mxCell>
        <mxCell id="7mGhuWGEQKy8r7tpkP_Z-1" value="" style="rounded=1;whiteSpace=wrap;html=1;fillColor=#dae8fc;strokeColor=#6c8ebf;" vertex="1" parent="7mGhuWGEQKy8r7tpkP_Z-33">
          <mxGeometry width="120" height="60" as="geometry" />
        </mxCell>
        <mxCell id="7mGhuWGEQKy8r7tpkP_Z-2" value="corpus" style="rounded=1;whiteSpace=wrap;html=1;fillColor=#dae8fc;strokeColor=#6c8ebf;shadow=0;" vertex="1" parent="7mGhuWGEQKy8r7tpkP_Z-33">
          <mxGeometry x="10" y="10" width="120" height="60" as="geometry" />
        </mxCell>
        <mxCell id="7mGhuWGEQKy8r7tpkP_Z-38" value="vector database" style="group" vertex="1" connectable="0" parent="1">
          <mxGeometry x="590" y="375" width="130" height="70" as="geometry" />
        </mxCell>
        <mxCell id="7mGhuWGEQKy8r7tpkP_Z-39" value="vector database" style="rounded=1;whiteSpace=wrap;html=1;fillColor=#dae8fc;strokeColor=#6c8ebf;" vertex="1" parent="7mGhuWGEQKy8r7tpkP_Z-38">
          <mxGeometry y="5" width="120" height="60" as="geometry" />
        </mxCell>
        <mxCell id="7mGhuWGEQKy8r7tpkP_Z-41" value="vector" style="rounded=1;whiteSpace=wrap;html=1;fillColor=#f8cecc;strokeColor=#b85450;" vertex="1" parent="1">
          <mxGeometry x="400" y="380" width="120" height="60" as="geometry" />
        </mxCell>
        <mxCell id="7mGhuWGEQKy8r7tpkP_Z-45" value="embedding machine" style="rounded=0;whiteSpace=wrap;html=1;fillColor=#d5e8d4;strokeColor=#82b366;" vertex="1" parent="1">
          <mxGeometry x="210" y="380" width="120" height="60" as="geometry" />
        </mxCell>
        <mxCell id="7mGhuWGEQKy8r7tpkP_Z-46" value="query" style="ellipse;whiteSpace=wrap;html=1;fillColor=#e1d5e7;strokeColor=#9673a6;" vertex="1" parent="1">
          <mxGeometry x="20" y="385" width="120" height="50" as="geometry" />
        </mxCell>
        <mxCell id="7mGhuWGEQKy8r7tpkP_Z-83" style="edgeStyle=orthogonalEdgeStyle;rounded=0;orthogonalLoop=1;jettySize=auto;html=1;exitX=0;exitY=0.5;exitDx=0;exitDy=0;entryX=1;entryY=0.5;entryDx=0;entryDy=0;" edge="1" parent="1" source="7mGhuWGEQKy8r7tpkP_Z-53" target="7mGhuWGEQKy8r7tpkP_Z-54">
          <mxGeometry relative="1" as="geometry" />
        </mxCell>
        <mxCell id="7mGhuWGEQKy8r7tpkP_Z-53" value="LLM" style="rounded=0;whiteSpace=wrap;html=1;fillColor=#f5f5f5;strokeColor=#666666;fontColor=#333333;" vertex="1" parent="1">
          <mxGeometry x="300" y="510" width="140" height="40" as="geometry" />
        </mxCell>
        <mxCell id="7mGhuWGEQKy8r7tpkP_Z-54" value="answer" style="ellipse;whiteSpace=wrap;html=1;fillColor=#e1d5e7;strokeColor=#9673a6;" vertex="1" parent="1">
          <mxGeometry x="20" y="505" width="120" height="50" as="geometry" />
        </mxCell>
        <mxCell id="7mGhuWGEQKy8r7tpkP_Z-55" value="" style="group" vertex="1" connectable="0" parent="1">
          <mxGeometry x="590" y="500" width="160" height="100" as="geometry" />
        </mxCell>
        <mxCell id="7mGhuWGEQKy8r7tpkP_Z-48" value="" style="rounded=1;whiteSpace=wrap;html=1;fillColor=#ffe6cc;strokeColor=#d79b00;" vertex="1" parent="7mGhuWGEQKy8r7tpkP_Z-55">
          <mxGeometry width="120" height="60" as="geometry" />
        </mxCell>
        <mxCell id="7mGhuWGEQKy8r7tpkP_Z-49" value="" style="rounded=1;whiteSpace=wrap;html=1;fillColor=#ffe6cc;strokeColor=#d79b00;" vertex="1" parent="7mGhuWGEQKy8r7tpkP_Z-55">
          <mxGeometry x="10" y="10" width="120" height="60" as="geometry" />
        </mxCell>
        <mxCell id="7mGhuWGEQKy8r7tpkP_Z-50" value="large text chunks" style="rounded=1;whiteSpace=wrap;html=1;fillColor=#ffe6cc;strokeColor=#d79b00;" vertex="1" parent="7mGhuWGEQKy8r7tpkP_Z-55">
          <mxGeometry x="20" y="20" width="120" height="60" as="geometry" />
        </mxCell>
        <mxCell id="7mGhuWGEQKy8r7tpkP_Z-51" value="large text chunks" style="rounded=1;whiteSpace=wrap;html=1;fillColor=#ffe6cc;strokeColor=#d79b00;" vertex="1" parent="7mGhuWGEQKy8r7tpkP_Z-55">
          <mxGeometry x="30" y="30" width="120" height="60" as="geometry" />
        </mxCell>
        <mxCell id="7mGhuWGEQKy8r7tpkP_Z-52" value="relevant text chunks" style="rounded=1;whiteSpace=wrap;html=1;fillColor=#ffe6cc;strokeColor=#d79b00;" vertex="1" parent="7mGhuWGEQKy8r7tpkP_Z-55">
          <mxGeometry x="40" y="40" width="120" height="60" as="geometry" />
        </mxCell>
        <mxCell id="7mGhuWGEQKy8r7tpkP_Z-56" value="" style="group" vertex="1" connectable="0" parent="1">
          <mxGeometry x="650" y="230" width="160" height="100" as="geometry" />
        </mxCell>
        <mxCell id="7mGhuWGEQKy8r7tpkP_Z-28" value="" style="rounded=1;whiteSpace=wrap;html=1;container=0;fillColor=#f8cecc;strokeColor=#b85450;" vertex="1" parent="7mGhuWGEQKy8r7tpkP_Z-56">
          <mxGeometry width="120" height="60" as="geometry" />
        </mxCell>
        <mxCell id="7mGhuWGEQKy8r7tpkP_Z-29" value="" style="rounded=1;whiteSpace=wrap;html=1;container=0;fillColor=#f8cecc;strokeColor=#b85450;" vertex="1" parent="7mGhuWGEQKy8r7tpkP_Z-56">
          <mxGeometry x="10" y="10" width="120" height="60" as="geometry" />
        </mxCell>
        <mxCell id="7mGhuWGEQKy8r7tpkP_Z-30" value="large text chunks" style="rounded=1;whiteSpace=wrap;html=1;container=0;fillColor=#f8cecc;strokeColor=#b85450;" vertex="1" parent="7mGhuWGEQKy8r7tpkP_Z-56">
          <mxGeometry x="20" y="20" width="120" height="60" as="geometry" />
        </mxCell>
        <mxCell id="7mGhuWGEQKy8r7tpkP_Z-31" value="large text chunks" style="rounded=1;whiteSpace=wrap;html=1;container=0;fillColor=#f8cecc;strokeColor=#b85450;" vertex="1" parent="7mGhuWGEQKy8r7tpkP_Z-56">
          <mxGeometry x="30" y="30" width="120" height="60" as="geometry" />
        </mxCell>
        <mxCell id="7mGhuWGEQKy8r7tpkP_Z-32" value="vectors" style="rounded=1;whiteSpace=wrap;html=1;container=0;fillColor=#f8cecc;strokeColor=#b85450;" vertex="1" parent="7mGhuWGEQKy8r7tpkP_Z-56">
          <mxGeometry x="40" y="40" width="120" height="60" as="geometry" />
        </mxCell>
        <mxCell id="7mGhuWGEQKy8r7tpkP_Z-57" value="" style="group" vertex="1" connectable="0" parent="1">
          <mxGeometry x="240" y="240" width="140" height="80" as="geometry" />
        </mxCell>
        <mxCell id="7mGhuWGEQKy8r7tpkP_Z-13" value="" style="rounded=1;whiteSpace=wrap;html=1;container=0;fillColor=#fff2cc;strokeColor=#d6b656;" vertex="1" parent="7mGhuWGEQKy8r7tpkP_Z-57">
          <mxGeometry width="120" height="60" as="geometry" />
        </mxCell>
        <mxCell id="7mGhuWGEQKy8r7tpkP_Z-14" value="" style="rounded=1;whiteSpace=wrap;html=1;container=0;fillColor=#fff2cc;strokeColor=#d6b656;" vertex="1" parent="7mGhuWGEQKy8r7tpkP_Z-57">
          <mxGeometry x="10" y="10" width="120" height="60" as="geometry" />
        </mxCell>
        <mxCell id="7mGhuWGEQKy8r7tpkP_Z-15" value="large text chunks" style="rounded=1;whiteSpace=wrap;html=1;container=0;fillColor=#fff2cc;strokeColor=#d6b656;" vertex="1" parent="7mGhuWGEQKy8r7tpkP_Z-57">
          <mxGeometry x="20" y="20" width="120" height="60" as="geometry" />
        </mxCell>
        <mxCell id="7mGhuWGEQKy8r7tpkP_Z-58" value="" style="group" vertex="1" connectable="0" parent="1">
          <mxGeometry x="50" y="240" width="140" height="80" as="geometry" />
        </mxCell>
        <mxCell id="7mGhuWGEQKy8r7tpkP_Z-6" value="" style="rounded=1;whiteSpace=wrap;html=1;fillColor=#fff2cc;container=0;strokeColor=#d6b656;" vertex="1" parent="7mGhuWGEQKy8r7tpkP_Z-58">
          <mxGeometry width="120" height="60" as="geometry" />
        </mxCell>
        <mxCell id="7mGhuWGEQKy8r7tpkP_Z-7" value="" style="rounded=1;whiteSpace=wrap;html=1;fillColor=#fff2cc;container=0;strokeColor=#d6b656;" vertex="1" parent="7mGhuWGEQKy8r7tpkP_Z-58">
          <mxGeometry x="10" y="10" width="120" height="60" as="geometry" />
        </mxCell>
        <mxCell id="7mGhuWGEQKy8r7tpkP_Z-8" value="large text chunks" style="rounded=1;whiteSpace=wrap;html=1;fillColor=#fff2cc;container=0;strokeColor=#d6b656;" vertex="1" parent="7mGhuWGEQKy8r7tpkP_Z-58">
          <mxGeometry x="20" y="20" width="120" height="60" as="geometry" />
        </mxCell>
        <mxCell id="7mGhuWGEQKy8r7tpkP_Z-59" value="" style="group" vertex="1" connectable="0" parent="1">
          <mxGeometry x="430" y="230" width="160" height="100" as="geometry" />
        </mxCell>
        <mxCell id="7mGhuWGEQKy8r7tpkP_Z-17" value="" style="rounded=1;whiteSpace=wrap;html=1;container=0;fillColor=#ffe6cc;strokeColor=#d79b00;" vertex="1" parent="7mGhuWGEQKy8r7tpkP_Z-59">
          <mxGeometry width="120" height="60" as="geometry" />
        </mxCell>
        <mxCell id="7mGhuWGEQKy8r7tpkP_Z-18" value="" style="rounded=1;whiteSpace=wrap;html=1;container=0;fillColor=#ffe6cc;strokeColor=#d79b00;" vertex="1" parent="7mGhuWGEQKy8r7tpkP_Z-59">
          <mxGeometry x="10" y="10" width="120" height="60" as="geometry" />
        </mxCell>
        <mxCell id="7mGhuWGEQKy8r7tpkP_Z-19" value="large text chunks" style="rounded=1;whiteSpace=wrap;html=1;container=0;fillColor=#ffe6cc;strokeColor=#d79b00;" vertex="1" parent="7mGhuWGEQKy8r7tpkP_Z-59">
          <mxGeometry x="20" y="20" width="120" height="60" as="geometry" />
        </mxCell>
        <mxCell id="7mGhuWGEQKy8r7tpkP_Z-20" value="large text chunks" style="rounded=1;whiteSpace=wrap;html=1;container=0;fillColor=#ffe6cc;strokeColor=#d79b00;" vertex="1" parent="7mGhuWGEQKy8r7tpkP_Z-59">
          <mxGeometry x="30" y="30" width="120" height="60" as="geometry" />
        </mxCell>
        <mxCell id="7mGhuWGEQKy8r7tpkP_Z-21" value="small text chunks" style="rounded=1;whiteSpace=wrap;html=1;container=0;fillColor=#ffe6cc;strokeColor=#d79b00;" vertex="1" parent="7mGhuWGEQKy8r7tpkP_Z-59">
          <mxGeometry x="40" y="40" width="120" height="60" as="geometry" />
        </mxCell>
        <mxCell id="7mGhuWGEQKy8r7tpkP_Z-67" value="" style="endArrow=classic;html=1;rounded=0;exitX=0.5;exitY=0;exitDx=0;exitDy=0;entryX=0.25;entryY=1;entryDx=0;entryDy=0;" edge="1" parent="1" source="7mGhuWGEQKy8r7tpkP_Z-1" target="7mGhuWGEQKy8r7tpkP_Z-5">
          <mxGeometry width="50" height="50" relative="1" as="geometry">
            <mxPoint x="390" y="490" as="sourcePoint" />
            <mxPoint x="440" y="440" as="targetPoint" />
          </mxGeometry>
        </mxCell>
        <mxCell id="7mGhuWGEQKy8r7tpkP_Z-68" value="" style="endArrow=classic;html=1;rounded=0;exitX=0.75;exitY=1;exitDx=0;exitDy=0;entryX=0.5;entryY=0;entryDx=0;entryDy=0;" edge="1" parent="1" source="7mGhuWGEQKy8r7tpkP_Z-5" target="7mGhuWGEQKy8r7tpkP_Z-6">
          <mxGeometry width="50" height="50" relative="1" as="geometry">
            <mxPoint x="390" y="490" as="sourcePoint" />
            <mxPoint x="440" y="440" as="targetPoint" />
          </mxGeometry>
        </mxCell>
        <mxCell id="7mGhuWGEQKy8r7tpkP_Z-69" value="" style="endArrow=classic;html=1;rounded=0;exitX=0.75;exitY=0;exitDx=0;exitDy=0;entryX=0.25;entryY=1;entryDx=0;entryDy=0;" edge="1" parent="1" source="7mGhuWGEQKy8r7tpkP_Z-6" target="7mGhuWGEQKy8r7tpkP_Z-9">
          <mxGeometry width="50" height="50" relative="1" as="geometry">
            <mxPoint x="390" y="490" as="sourcePoint" />
            <mxPoint x="440" y="440" as="targetPoint" />
          </mxGeometry>
        </mxCell>
        <mxCell id="7mGhuWGEQKy8r7tpkP_Z-70" value="" style="endArrow=classic;html=1;rounded=0;exitX=0.75;exitY=1;exitDx=0;exitDy=0;entryX=0.5;entryY=0;entryDx=0;entryDy=0;" edge="1" parent="1" source="7mGhuWGEQKy8r7tpkP_Z-9" target="7mGhuWGEQKy8r7tpkP_Z-13">
          <mxGeometry width="50" height="50" relative="1" as="geometry">
            <mxPoint x="390" y="490" as="sourcePoint" />
            <mxPoint x="440" y="440" as="targetPoint" />
          </mxGeometry>
        </mxCell>
        <mxCell id="7mGhuWGEQKy8r7tpkP_Z-71" value="" style="endArrow=classic;html=1;rounded=0;exitX=0.75;exitY=0;exitDx=0;exitDy=0;entryX=0.25;entryY=1;entryDx=0;entryDy=0;" edge="1" parent="1" source="7mGhuWGEQKy8r7tpkP_Z-13" target="7mGhuWGEQKy8r7tpkP_Z-16">
          <mxGeometry width="50" height="50" relative="1" as="geometry">
            <mxPoint x="390" y="490" as="sourcePoint" />
            <mxPoint x="440" y="440" as="targetPoint" />
          </mxGeometry>
        </mxCell>
        <mxCell id="7mGhuWGEQKy8r7tpkP_Z-72" value="" style="endArrow=classic;html=1;rounded=0;exitX=0.75;exitY=1;exitDx=0;exitDy=0;entryX=0.5;entryY=0;entryDx=0;entryDy=0;" edge="1" parent="1" source="7mGhuWGEQKy8r7tpkP_Z-16" target="7mGhuWGEQKy8r7tpkP_Z-17">
          <mxGeometry width="50" height="50" relative="1" as="geometry">
            <mxPoint x="390" y="490" as="sourcePoint" />
            <mxPoint x="440" y="440" as="targetPoint" />
          </mxGeometry>
        </mxCell>
        <mxCell id="7mGhuWGEQKy8r7tpkP_Z-73" value="" style="endArrow=classic;html=1;rounded=0;exitX=0.75;exitY=0;exitDx=0;exitDy=0;entryX=0.25;entryY=1;entryDx=0;entryDy=0;" edge="1" parent="1" source="7mGhuWGEQKy8r7tpkP_Z-17" target="7mGhuWGEQKy8r7tpkP_Z-22">
          <mxGeometry width="50" height="50" relative="1" as="geometry">
            <mxPoint x="390" y="490" as="sourcePoint" />
            <mxPoint x="440" y="440" as="targetPoint" />
          </mxGeometry>
        </mxCell>
        <mxCell id="7mGhuWGEQKy8r7tpkP_Z-74" value="" style="endArrow=classic;html=1;rounded=0;exitX=0.75;exitY=1;exitDx=0;exitDy=0;entryX=0.5;entryY=0;entryDx=0;entryDy=0;" edge="1" parent="1" source="7mGhuWGEQKy8r7tpkP_Z-22" target="7mGhuWGEQKy8r7tpkP_Z-28">
          <mxGeometry width="50" height="50" relative="1" as="geometry">
            <mxPoint x="390" y="490" as="sourcePoint" />
            <mxPoint x="440" y="440" as="targetPoint" />
          </mxGeometry>
        </mxCell>
        <mxCell id="7mGhuWGEQKy8r7tpkP_Z-75" value="" style="endArrow=classic;html=1;rounded=0;exitX=1;exitY=0.5;exitDx=0;exitDy=0;" edge="1" parent="1" source="7mGhuWGEQKy8r7tpkP_Z-46" target="7mGhuWGEQKy8r7tpkP_Z-45">
          <mxGeometry width="50" height="50" relative="1" as="geometry">
            <mxPoint x="390" y="490" as="sourcePoint" />
            <mxPoint x="440" y="440" as="targetPoint" />
          </mxGeometry>
        </mxCell>
        <mxCell id="7mGhuWGEQKy8r7tpkP_Z-76" value="" style="endArrow=classic;html=1;rounded=0;exitX=1;exitY=0.5;exitDx=0;exitDy=0;entryX=0;entryY=0.5;entryDx=0;entryDy=0;" edge="1" parent="1" source="7mGhuWGEQKy8r7tpkP_Z-45" target="7mGhuWGEQKy8r7tpkP_Z-41">
          <mxGeometry width="50" height="50" relative="1" as="geometry">
            <mxPoint x="390" y="490" as="sourcePoint" />
            <mxPoint x="440" y="440" as="targetPoint" />
          </mxGeometry>
        </mxCell>
        <mxCell id="7mGhuWGEQKy8r7tpkP_Z-77" value="" style="endArrow=classic;html=1;rounded=0;exitX=1;exitY=0.5;exitDx=0;exitDy=0;entryX=0;entryY=0.5;entryDx=0;entryDy=0;" edge="1" parent="1" source="7mGhuWGEQKy8r7tpkP_Z-41" target="7mGhuWGEQKy8r7tpkP_Z-39">
          <mxGeometry width="50" height="50" relative="1" as="geometry">
            <mxPoint x="390" y="490" as="sourcePoint" />
            <mxPoint x="440" y="440" as="targetPoint" />
          </mxGeometry>
        </mxCell>
        <mxCell id="7mGhuWGEQKy8r7tpkP_Z-78" value="" style="endArrow=classic;html=1;rounded=0;exitX=0.5;exitY=1;exitDx=0;exitDy=0;entryX=0.5;entryY=0;entryDx=0;entryDy=0;" edge="1" parent="1" source="7mGhuWGEQKy8r7tpkP_Z-21" target="7mGhuWGEQKy8r7tpkP_Z-39">
          <mxGeometry width="50" height="50" relative="1" as="geometry">
            <mxPoint x="390" y="490" as="sourcePoint" />
            <mxPoint x="440" y="440" as="targetPoint" />
          </mxGeometry>
        </mxCell>
        <mxCell id="7mGhuWGEQKy8r7tpkP_Z-79" value="" style="endArrow=classic;html=1;rounded=0;exitX=0.5;exitY=1;exitDx=0;exitDy=0;entryX=0.5;entryY=0;entryDx=0;entryDy=0;" edge="1" parent="1" source="7mGhuWGEQKy8r7tpkP_Z-32" target="7mGhuWGEQKy8r7tpkP_Z-39">
          <mxGeometry width="50" height="50" relative="1" as="geometry">
            <mxPoint x="390" y="490" as="sourcePoint" />
            <mxPoint x="440" y="440" as="targetPoint" />
          </mxGeometry>
        </mxCell>
        <mxCell id="7mGhuWGEQKy8r7tpkP_Z-80" value="" style="endArrow=classic;html=1;rounded=0;exitX=0.5;exitY=1;exitDx=0;exitDy=0;entryX=0.5;entryY=0;entryDx=0;entryDy=0;" edge="1" parent="1" source="7mGhuWGEQKy8r7tpkP_Z-39" target="7mGhuWGEQKy8r7tpkP_Z-48">
          <mxGeometry width="50" height="50" relative="1" as="geometry">
            <mxPoint x="390" y="490" as="sourcePoint" />
            <mxPoint x="440" y="440" as="targetPoint" />
          </mxGeometry>
        </mxCell>
        <mxCell id="7mGhuWGEQKy8r7tpkP_Z-82" value="" style="endArrow=classic;html=1;rounded=0;exitX=0;exitY=0.5;exitDx=0;exitDy=0;entryX=1;entryY=0.5;entryDx=0;entryDy=0;" edge="1" parent="1" source="7mGhuWGEQKy8r7tpkP_Z-48" target="7mGhuWGEQKy8r7tpkP_Z-53">
          <mxGeometry width="50" height="50" relative="1" as="geometry">
            <mxPoint x="390" y="590" as="sourcePoint" />
            <mxPoint x="440" y="540" as="targetPoint" />
          </mxGeometry>
        </mxCell>
        <mxCell id="7mGhuWGEQKy8r7tpkP_Z-85" value="" style="endArrow=classic;html=1;rounded=0;exitX=0.5;exitY=1;exitDx=0;exitDy=0;entryX=0.5;entryY=0;entryDx=0;entryDy=0;" edge="1" parent="1" source="7mGhuWGEQKy8r7tpkP_Z-46" target="7mGhuWGEQKy8r7tpkP_Z-53">
          <mxGeometry width="50" height="50" relative="1" as="geometry">
            <mxPoint x="390" y="490" as="sourcePoint" />
            <mxPoint x="440" y="440" as="targetPoint" />
          </mxGeometry>
        </mxCell>
      </root>
    </mxGraphModel>
  </diagram>
</mxfile>
